<?xml version="1.0" encoding="utf-8" standalone="no"?>
<!DOCTYPE svg PUBLIC "-//W3C//DTD SVG 1.1//EN"
  "http://www.w3.org/Graphics/SVG/1.1/DTD/svg11.dtd">
<svg height="720pt" version="1.1" viewBox="0 0 1080 720" width="1080pt" xmlns="http://www.w3.org/2000/svg" xmlns:xlink="http://www.w3.org/1999/xlink">
 <metadata>
  <rdf:RDF xmlns:cc="http://creativecommons.org/ns#" xmlns:dc="http://purl.org/dc/elements/1.1/" xmlns:rdf="http://www.w3.org/1999/02/22-rdf-syntax-ns#">
   <cc:Work>
    <dc:type rdf:resource="http://purl.org/dc/dcmitype/StillImage"/>
    <dc:date>2022-05-12T12:49:10.666375</dc:date>
    <dc:format>image/svg+xml</dc:format>
    <dc:creator>
     <cc:Agent>
      <dc:title>Matplotlib v3.4.3, https://matplotlib.org/</dc:title>
     </cc:Agent>
    </dc:creator>
   </cc:Work>
  </rdf:RDF>
 </metadata>
 <defs>
  <style type="text/css">*{stroke-linecap:butt;stroke-linejoin:round;}</style>
 </defs>
 <g id="figure_1">
  <g id="patch_1">
   <path d="M 0 720 
L 1080 720 
L 1080 0 
L 0 0 
z
" style="fill:#ffffff;"/>
  </g>
  <g id="axes_1">
   <g id="patch_2">
    <path d="M 135 640.8 
L 972 640.8 
L 972 86.4 
L 135 86.4 
z
" style="fill:#ffffff;"/>
   </g>
   <g id="matplotlib.axis_1">
    <g id="xtick_1">
     <g id="line2d_1">
      <path clip-path="url(#p2bfc7cc1bd)" d="M 135 640.8 
L 135 86.4 
" style="fill:none;stroke:#b0b0b0;stroke-linecap:square;stroke-width:2;"/>
     </g>
     <g id="line2d_2">
      <defs>
       <path d="M 0 0 
L 0 3.5 
" id="m601b2c1a86" style="stroke:#000000;stroke-width:0.8;"/>
      </defs>
      <g>
       <use style="stroke:#000000;stroke-width:0.8;" x="135" xlink:href="#m601b2c1a86" y="640.8"/>
      </g>
     </g>
     <g id="text_1">
      <!-- 0 -->
      <g transform="translate(131.81875 655.398438)scale(0.1 -0.1)">
       <defs>
        <path d="M 2034 4250 
Q 1547 4250 1301 3770 
Q 1056 3291 1056 2328 
Q 1056 1369 1301 889 
Q 1547 409 2034 409 
Q 2525 409 2770 889 
Q 3016 1369 3016 2328 
Q 3016 3291 2770 3770 
Q 2525 4250 2034 4250 
z
M 2034 4750 
Q 2819 4750 3233 4129 
Q 3647 3509 3647 2328 
Q 3647 1150 3233 529 
Q 2819 -91 2034 -91 
Q 1250 -91 836 529 
Q 422 1150 422 2328 
Q 422 3509 836 4129 
Q 1250 4750 2034 4750 
z
" id="DejaVuSans-30" transform="scale(0.015625)"/>
       </defs>
       <use xlink:href="#DejaVuSans-30"/>
      </g>
     </g>
    </g>
    <g id="xtick_2">
     <g id="line2d_3">
      <path clip-path="url(#p2bfc7cc1bd)" d="M 274.115115 640.8 
L 274.115115 86.4 
" style="fill:none;stroke:#b0b0b0;stroke-linecap:square;stroke-width:2;"/>
     </g>
     <g id="line2d_4">
      <g>
       <use style="stroke:#000000;stroke-width:0.8;" x="274.115115" xlink:href="#m601b2c1a86" y="640.8"/>
      </g>
     </g>
     <g id="text_2">
      <!-- 2 -->
      <g transform="translate(270.933865 655.398438)scale(0.1 -0.1)">
       <defs>
        <path d="M 1228 531 
L 3431 531 
L 3431 0 
L 469 0 
L 469 531 
Q 828 903 1448 1529 
Q 2069 2156 2228 2338 
Q 2531 2678 2651 2914 
Q 2772 3150 2772 3378 
Q 2772 3750 2511 3984 
Q 2250 4219 1831 4219 
Q 1534 4219 1204 4116 
Q 875 4013 500 3803 
L 500 4441 
Q 881 4594 1212 4672 
Q 1544 4750 1819 4750 
Q 2544 4750 2975 4387 
Q 3406 4025 3406 3419 
Q 3406 3131 3298 2873 
Q 3191 2616 2906 2266 
Q 2828 2175 2409 1742 
Q 1991 1309 1228 531 
z
" id="DejaVuSans-32" transform="scale(0.015625)"/>
       </defs>
       <use xlink:href="#DejaVuSans-32"/>
      </g>
     </g>
    </g>
    <g id="xtick_3">
     <g id="line2d_5">
      <path clip-path="url(#p2bfc7cc1bd)" d="M 413.23023 640.8 
L 413.23023 86.4 
" style="fill:none;stroke:#b0b0b0;stroke-linecap:square;stroke-width:2;"/>
     </g>
     <g id="line2d_6">
      <g>
       <use style="stroke:#000000;stroke-width:0.8;" x="413.23023" xlink:href="#m601b2c1a86" y="640.8"/>
      </g>
     </g>
     <g id="text_3">
      <!-- 4 -->
      <g transform="translate(410.04898 655.398438)scale(0.1 -0.1)">
       <defs>
        <path d="M 2419 4116 
L 825 1625 
L 2419 1625 
L 2419 4116 
z
M 2253 4666 
L 3047 4666 
L 3047 1625 
L 3713 1625 
L 3713 1100 
L 3047 1100 
L 3047 0 
L 2419 0 
L 2419 1100 
L 313 1100 
L 313 1709 
L 2253 4666 
z
" id="DejaVuSans-34" transform="scale(0.015625)"/>
       </defs>
       <use xlink:href="#DejaVuSans-34"/>
      </g>
     </g>
    </g>
    <g id="xtick_4">
     <g id="line2d_7">
      <path clip-path="url(#p2bfc7cc1bd)" d="M 552.345345 640.8 
L 552.345345 86.4 
" style="fill:none;stroke:#b0b0b0;stroke-linecap:square;stroke-width:2;"/>
     </g>
     <g id="line2d_8">
      <g>
       <use style="stroke:#000000;stroke-width:0.8;" x="552.345345" xlink:href="#m601b2c1a86" y="640.8"/>
      </g>
     </g>
     <g id="text_4">
      <!-- 6 -->
      <g transform="translate(549.164095 655.398438)scale(0.1 -0.1)">
       <defs>
        <path d="M 2113 2584 
Q 1688 2584 1439 2293 
Q 1191 2003 1191 1497 
Q 1191 994 1439 701 
Q 1688 409 2113 409 
Q 2538 409 2786 701 
Q 3034 994 3034 1497 
Q 3034 2003 2786 2293 
Q 2538 2584 2113 2584 
z
M 3366 4563 
L 3366 3988 
Q 3128 4100 2886 4159 
Q 2644 4219 2406 4219 
Q 1781 4219 1451 3797 
Q 1122 3375 1075 2522 
Q 1259 2794 1537 2939 
Q 1816 3084 2150 3084 
Q 2853 3084 3261 2657 
Q 3669 2231 3669 1497 
Q 3669 778 3244 343 
Q 2819 -91 2113 -91 
Q 1303 -91 875 529 
Q 447 1150 447 2328 
Q 447 3434 972 4092 
Q 1497 4750 2381 4750 
Q 2619 4750 2861 4703 
Q 3103 4656 3366 4563 
z
" id="DejaVuSans-36" transform="scale(0.015625)"/>
       </defs>
       <use xlink:href="#DejaVuSans-36"/>
      </g>
     </g>
    </g>
    <g id="xtick_5">
     <g id="line2d_9">
      <path clip-path="url(#p2bfc7cc1bd)" d="M 691.460459 640.8 
L 691.460459 86.4 
" style="fill:none;stroke:#b0b0b0;stroke-linecap:square;stroke-width:2;"/>
     </g>
     <g id="line2d_10">
      <g>
       <use style="stroke:#000000;stroke-width:0.8;" x="691.460459" xlink:href="#m601b2c1a86" y="640.8"/>
      </g>
     </g>
     <g id="text_5">
      <!-- 8 -->
      <g transform="translate(688.279209 655.398438)scale(0.1 -0.1)">
       <defs>
        <path d="M 2034 2216 
Q 1584 2216 1326 1975 
Q 1069 1734 1069 1313 
Q 1069 891 1326 650 
Q 1584 409 2034 409 
Q 2484 409 2743 651 
Q 3003 894 3003 1313 
Q 3003 1734 2745 1975 
Q 2488 2216 2034 2216 
z
M 1403 2484 
Q 997 2584 770 2862 
Q 544 3141 544 3541 
Q 544 4100 942 4425 
Q 1341 4750 2034 4750 
Q 2731 4750 3128 4425 
Q 3525 4100 3525 3541 
Q 3525 3141 3298 2862 
Q 3072 2584 2669 2484 
Q 3125 2378 3379 2068 
Q 3634 1759 3634 1313 
Q 3634 634 3220 271 
Q 2806 -91 2034 -91 
Q 1263 -91 848 271 
Q 434 634 434 1313 
Q 434 1759 690 2068 
Q 947 2378 1403 2484 
z
M 1172 3481 
Q 1172 3119 1398 2916 
Q 1625 2713 2034 2713 
Q 2441 2713 2670 2916 
Q 2900 3119 2900 3481 
Q 2900 3844 2670 4047 
Q 2441 4250 2034 4250 
Q 1625 4250 1398 4047 
Q 1172 3844 1172 3481 
z
" id="DejaVuSans-38" transform="scale(0.015625)"/>
       </defs>
       <use xlink:href="#DejaVuSans-38"/>
      </g>
     </g>
    </g>
    <g id="xtick_6">
     <g id="line2d_11">
      <path clip-path="url(#p2bfc7cc1bd)" d="M 830.575574 640.8 
L 830.575574 86.4 
" style="fill:none;stroke:#b0b0b0;stroke-linecap:square;stroke-width:2;"/>
     </g>
     <g id="line2d_12">
      <g>
       <use style="stroke:#000000;stroke-width:0.8;" x="830.575574" xlink:href="#m601b2c1a86" y="640.8"/>
      </g>
     </g>
     <g id="text_6">
      <!-- 10 -->
      <g transform="translate(824.213074 655.398438)scale(0.1 -0.1)">
       <defs>
        <path d="M 794 531 
L 1825 531 
L 1825 4091 
L 703 3866 
L 703 4441 
L 1819 4666 
L 2450 4666 
L 2450 531 
L 3481 531 
L 3481 0 
L 794 0 
L 794 531 
z
" id="DejaVuSans-31" transform="scale(0.015625)"/>
       </defs>
       <use xlink:href="#DejaVuSans-31"/>
       <use x="63.623047" xlink:href="#DejaVuSans-30"/>
      </g>
     </g>
    </g>
    <g id="xtick_7">
     <g id="line2d_13">
      <path clip-path="url(#p2bfc7cc1bd)" d="M 969.690689 640.8 
L 969.690689 86.4 
" style="fill:none;stroke:#b0b0b0;stroke-linecap:square;stroke-width:2;"/>
     </g>
     <g id="line2d_14">
      <g>
       <use style="stroke:#000000;stroke-width:0.8;" x="969.690689" xlink:href="#m601b2c1a86" y="640.8"/>
      </g>
     </g>
     <g id="text_7">
      <!-- 12 -->
      <g transform="translate(963.328189 655.398438)scale(0.1 -0.1)">
       <use xlink:href="#DejaVuSans-31"/>
       <use x="63.623047" xlink:href="#DejaVuSans-32"/>
      </g>
     </g>
    </g>
    <g id="xtick_8">
     <g id="line2d_15">
      <path clip-path="url(#p2bfc7cc1bd)" d="M 169.778779 640.8 
L 169.778779 86.4 
" style="fill:none;stroke:#b0b0b0;stroke-dasharray:0.8,1.32;stroke-dashoffset:0;stroke-width:0.8;"/>
     </g>
     <g id="line2d_16">
      <defs>
       <path d="M 0 0 
L 0 2 
" id="mf275f3c628" style="stroke:#000000;stroke-width:0.6;"/>
      </defs>
      <g>
       <use style="stroke:#000000;stroke-width:0.6;" x="169.778779" xlink:href="#mf275f3c628" y="640.8"/>
      </g>
     </g>
    </g>
    <g id="xtick_9">
     <g id="line2d_17">
      <path clip-path="url(#p2bfc7cc1bd)" d="M 204.557557 640.8 
L 204.557557 86.4 
" style="fill:none;stroke:#b0b0b0;stroke-dasharray:0.8,1.32;stroke-dashoffset:0;stroke-width:0.8;"/>
     </g>
     <g id="line2d_18">
      <g>
       <use style="stroke:#000000;stroke-width:0.6;" x="204.557557" xlink:href="#mf275f3c628" y="640.8"/>
      </g>
     </g>
    </g>
    <g id="xtick_10">
     <g id="line2d_19">
      <path clip-path="url(#p2bfc7cc1bd)" d="M 239.336336 640.8 
L 239.336336 86.4 
" style="fill:none;stroke:#b0b0b0;stroke-dasharray:0.8,1.32;stroke-dashoffset:0;stroke-width:0.8;"/>
     </g>
     <g id="line2d_20">
      <g>
       <use style="stroke:#000000;stroke-width:0.6;" x="239.336336" xlink:href="#mf275f3c628" y="640.8"/>
      </g>
     </g>
    </g>
    <g id="xtick_11">
     <g id="line2d_21">
      <path clip-path="url(#p2bfc7cc1bd)" d="M 308.893894 640.8 
L 308.893894 86.4 
" style="fill:none;stroke:#b0b0b0;stroke-dasharray:0.8,1.32;stroke-dashoffset:0;stroke-width:0.8;"/>
     </g>
     <g id="line2d_22">
      <g>
       <use style="stroke:#000000;stroke-width:0.6;" x="308.893894" xlink:href="#mf275f3c628" y="640.8"/>
      </g>
     </g>
    </g>
    <g id="xtick_12">
     <g id="line2d_23">
      <path clip-path="url(#p2bfc7cc1bd)" d="M 343.672672 640.8 
L 343.672672 86.4 
" style="fill:none;stroke:#b0b0b0;stroke-dasharray:0.8,1.32;stroke-dashoffset:0;stroke-width:0.8;"/>
     </g>
     <g id="line2d_24">
      <g>
       <use style="stroke:#000000;stroke-width:0.6;" x="343.672672" xlink:href="#mf275f3c628" y="640.8"/>
      </g>
     </g>
    </g>
    <g id="xtick_13">
     <g id="line2d_25">
      <path clip-path="url(#p2bfc7cc1bd)" d="M 378.451451 640.8 
L 378.451451 86.4 
" style="fill:none;stroke:#b0b0b0;stroke-dasharray:0.8,1.32;stroke-dashoffset:0;stroke-width:0.8;"/>
     </g>
     <g id="line2d_26">
      <g>
       <use style="stroke:#000000;stroke-width:0.6;" x="378.451451" xlink:href="#mf275f3c628" y="640.8"/>
      </g>
     </g>
    </g>
    <g id="xtick_14">
     <g id="line2d_27">
      <path clip-path="url(#p2bfc7cc1bd)" d="M 448.009008 640.8 
L 448.009008 86.4 
" style="fill:none;stroke:#b0b0b0;stroke-dasharray:0.8,1.32;stroke-dashoffset:0;stroke-width:0.8;"/>
     </g>
     <g id="line2d_28">
      <g>
       <use style="stroke:#000000;stroke-width:0.6;" x="448.009008" xlink:href="#mf275f3c628" y="640.8"/>
      </g>
     </g>
    </g>
    <g id="xtick_15">
     <g id="line2d_29">
      <path clip-path="url(#p2bfc7cc1bd)" d="M 482.787787 640.8 
L 482.787787 86.4 
" style="fill:none;stroke:#b0b0b0;stroke-dasharray:0.8,1.32;stroke-dashoffset:0;stroke-width:0.8;"/>
     </g>
     <g id="line2d_30">
      <g>
       <use style="stroke:#000000;stroke-width:0.6;" x="482.787787" xlink:href="#mf275f3c628" y="640.8"/>
      </g>
     </g>
    </g>
    <g id="xtick_16">
     <g id="line2d_31">
      <path clip-path="url(#p2bfc7cc1bd)" d="M 517.566566 640.8 
L 517.566566 86.4 
" style="fill:none;stroke:#b0b0b0;stroke-dasharray:0.8,1.32;stroke-dashoffset:0;stroke-width:0.8;"/>
     </g>
     <g id="line2d_32">
      <g>
       <use style="stroke:#000000;stroke-width:0.6;" x="517.566566" xlink:href="#mf275f3c628" y="640.8"/>
      </g>
     </g>
    </g>
    <g id="xtick_17">
     <g id="line2d_33">
      <path clip-path="url(#p2bfc7cc1bd)" d="M 587.124123 640.8 
L 587.124123 86.4 
" style="fill:none;stroke:#b0b0b0;stroke-dasharray:0.8,1.32;stroke-dashoffset:0;stroke-width:0.8;"/>
     </g>
     <g id="line2d_34">
      <g>
       <use style="stroke:#000000;stroke-width:0.6;" x="587.124123" xlink:href="#mf275f3c628" y="640.8"/>
      </g>
     </g>
    </g>
    <g id="xtick_18">
     <g id="line2d_35">
      <path clip-path="url(#p2bfc7cc1bd)" d="M 621.902902 640.8 
L 621.902902 86.4 
" style="fill:none;stroke:#b0b0b0;stroke-dasharray:0.8,1.32;stroke-dashoffset:0;stroke-width:0.8;"/>
     </g>
     <g id="line2d_36">
      <g>
       <use style="stroke:#000000;stroke-width:0.6;" x="621.902902" xlink:href="#mf275f3c628" y="640.8"/>
      </g>
     </g>
    </g>
    <g id="xtick_19">
     <g id="line2d_37">
      <path clip-path="url(#p2bfc7cc1bd)" d="M 656.681681 640.8 
L 656.681681 86.4 
" style="fill:none;stroke:#b0b0b0;stroke-dasharray:0.8,1.32;stroke-dashoffset:0;stroke-width:0.8;"/>
     </g>
     <g id="line2d_38">
      <g>
       <use style="stroke:#000000;stroke-width:0.6;" x="656.681681" xlink:href="#mf275f3c628" y="640.8"/>
      </g>
     </g>
    </g>
    <g id="xtick_20">
     <g id="line2d_39">
      <path clip-path="url(#p2bfc7cc1bd)" d="M 726.239238 640.8 
L 726.239238 86.4 
" style="fill:none;stroke:#b0b0b0;stroke-dasharray:0.8,1.32;stroke-dashoffset:0;stroke-width:0.8;"/>
     </g>
     <g id="line2d_40">
      <g>
       <use style="stroke:#000000;stroke-width:0.6;" x="726.239238" xlink:href="#mf275f3c628" y="640.8"/>
      </g>
     </g>
    </g>
    <g id="xtick_21">
     <g id="line2d_41">
      <path clip-path="url(#p2bfc7cc1bd)" d="M 761.018017 640.8 
L 761.018017 86.4 
" style="fill:none;stroke:#b0b0b0;stroke-dasharray:0.8,1.32;stroke-dashoffset:0;stroke-width:0.8;"/>
     </g>
     <g id="line2d_42">
      <g>
       <use style="stroke:#000000;stroke-width:0.6;" x="761.018017" xlink:href="#mf275f3c628" y="640.8"/>
      </g>
     </g>
    </g>
    <g id="xtick_22">
     <g id="line2d_43">
      <path clip-path="url(#p2bfc7cc1bd)" d="M 795.796796 640.8 
L 795.796796 86.4 
" style="fill:none;stroke:#b0b0b0;stroke-dasharray:0.8,1.32;stroke-dashoffset:0;stroke-width:0.8;"/>
     </g>
     <g id="line2d_44">
      <g>
       <use style="stroke:#000000;stroke-width:0.6;" x="795.796796" xlink:href="#mf275f3c628" y="640.8"/>
      </g>
     </g>
    </g>
    <g id="xtick_23">
     <g id="line2d_45">
      <path clip-path="url(#p2bfc7cc1bd)" d="M 865.354353 640.8 
L 865.354353 86.4 
" style="fill:none;stroke:#b0b0b0;stroke-dasharray:0.8,1.32;stroke-dashoffset:0;stroke-width:0.8;"/>
     </g>
     <g id="line2d_46">
      <g>
       <use style="stroke:#000000;stroke-width:0.6;" x="865.354353" xlink:href="#mf275f3c628" y="640.8"/>
      </g>
     </g>
    </g>
    <g id="xtick_24">
     <g id="line2d_47">
      <path clip-path="url(#p2bfc7cc1bd)" d="M 900.133132 640.8 
L 900.133132 86.4 
" style="fill:none;stroke:#b0b0b0;stroke-dasharray:0.8,1.32;stroke-dashoffset:0;stroke-width:0.8;"/>
     </g>
     <g id="line2d_48">
      <g>
       <use style="stroke:#000000;stroke-width:0.6;" x="900.133132" xlink:href="#mf275f3c628" y="640.8"/>
      </g>
     </g>
    </g>
    <g id="xtick_25">
     <g id="line2d_49">
      <path clip-path="url(#p2bfc7cc1bd)" d="M 934.91191 640.8 
L 934.91191 86.4 
" style="fill:none;stroke:#b0b0b0;stroke-dasharray:0.8,1.32;stroke-dashoffset:0;stroke-width:0.8;"/>
     </g>
     <g id="line2d_50">
      <g>
       <use style="stroke:#000000;stroke-width:0.6;" x="934.91191" xlink:href="#mf275f3c628" y="640.8"/>
      </g>
     </g>
    </g>
    <g id="text_8">
     <!-- Время, с -->
     <g transform="translate(531.111719 669.076563)scale(0.1 -0.1)">
      <defs>
       <path d="M 1259 2228 
L 1259 519 
L 2272 519 
Q 2781 519 3026 730 
Q 3272 941 3272 1375 
Q 3272 1813 3026 2020 
Q 2781 2228 2272 2228 
L 1259 2228 
z
M 1259 4147 
L 1259 2741 
L 2194 2741 
Q 2656 2741 2882 2914 
Q 3109 3088 3109 3444 
Q 3109 3797 2882 3972 
Q 2656 4147 2194 4147 
L 1259 4147 
z
M 628 4666 
L 2241 4666 
Q 2963 4666 3353 4366 
Q 3744 4066 3744 3513 
Q 3744 3084 3544 2831 
Q 3344 2578 2956 2516 
Q 3422 2416 3680 2098 
Q 3938 1781 3938 1306 
Q 3938 681 3513 340 
Q 3088 0 2303 0 
L 628 0 
L 628 4666 
z
" id="DejaVuSans-412" transform="scale(0.015625)"/>
       <path d="M 1159 525 
L 1159 -1331 
L 581 -1331 
L 581 3500 
L 1159 3500 
L 1159 2969 
Q 1341 3281 1617 3432 
Q 1894 3584 2278 3584 
Q 2916 3584 3314 3078 
Q 3713 2572 3713 1747 
Q 3713 922 3314 415 
Q 2916 -91 2278 -91 
Q 1894 -91 1617 61 
Q 1341 213 1159 525 
z
M 3116 1747 
Q 3116 2381 2855 2742 
Q 2594 3103 2138 3103 
Q 1681 3103 1420 2742 
Q 1159 2381 1159 1747 
Q 1159 1113 1420 752 
Q 1681 391 2138 391 
Q 2594 391 2855 752 
Q 3116 1113 3116 1747 
z
" id="DejaVuSans-440" transform="scale(0.015625)"/>
       <path d="M 3597 1894 
L 3597 1613 
L 953 1613 
Q 991 1019 1311 708 
Q 1631 397 2203 397 
Q 2534 397 2845 478 
Q 3156 559 3463 722 
L 3463 178 
Q 3153 47 2828 -22 
Q 2503 -91 2169 -91 
Q 1331 -91 842 396 
Q 353 884 353 1716 
Q 353 2575 817 3079 
Q 1281 3584 2069 3584 
Q 2775 3584 3186 3129 
Q 3597 2675 3597 1894 
z
M 3022 2063 
Q 3016 2534 2758 2815 
Q 2500 3097 2075 3097 
Q 1594 3097 1305 2825 
Q 1016 2553 972 2059 
L 3022 2063 
z
" id="DejaVuSans-435" transform="scale(0.015625)"/>
       <path d="M 581 3500 
L 1422 3500 
L 2416 1156 
L 3413 3500 
L 4247 3500 
L 4247 0 
L 3669 0 
L 3669 2950 
L 2703 672 
L 2128 672 
L 1159 2950 
L 1159 0 
L 581 0 
L 581 3500 
z
" id="DejaVuSans-43c" transform="scale(0.015625)"/>
       <path d="M 1181 2491 
Q 1181 2231 1381 2084 
Q 1581 1938 1953 1938 
L 2728 1938 
L 2728 3041 
L 1953 3041 
Q 1581 3041 1381 2897 
Q 1181 2753 1181 2491 
z
M 363 0 
L 1431 1534 
Q 1069 1616 828 1830 
Q 588 2044 588 2491 
Q 588 2997 923 3248 
Q 1259 3500 1938 3500 
L 3306 3500 
L 3306 0 
L 2728 0 
L 2728 1478 
L 2013 1478 
L 981 0 
L 363 0 
z
" id="DejaVuSans-44f" transform="scale(0.015625)"/>
       <path d="M 750 794 
L 1409 794 
L 1409 256 
L 897 -744 
L 494 -744 
L 750 256 
L 750 794 
z
" id="DejaVuSans-2c" transform="scale(0.015625)"/>
       <path id="DejaVuSans-20" transform="scale(0.015625)"/>
       <path d="M 3122 3366 
L 3122 2828 
Q 2878 2963 2633 3030 
Q 2388 3097 2138 3097 
Q 1578 3097 1268 2742 
Q 959 2388 959 1747 
Q 959 1106 1268 751 
Q 1578 397 2138 397 
Q 2388 397 2633 464 
Q 2878 531 3122 666 
L 3122 134 
Q 2881 22 2623 -34 
Q 2366 -91 2075 -91 
Q 1284 -91 818 406 
Q 353 903 353 1747 
Q 353 2603 823 3093 
Q 1294 3584 2113 3584 
Q 2378 3584 2631 3529 
Q 2884 3475 3122 3366 
z
" id="DejaVuSans-441" transform="scale(0.015625)"/>
      </defs>
      <use xlink:href="#DejaVuSans-412"/>
      <use x="68.603516" xlink:href="#DejaVuSans-440"/>
      <use x="132.080078" xlink:href="#DejaVuSans-435"/>
      <use x="193.603516" xlink:href="#DejaVuSans-43c"/>
      <use x="269.042969" xlink:href="#DejaVuSans-44f"/>
      <use x="329.199219" xlink:href="#DejaVuSans-2c"/>
      <use x="360.986328" xlink:href="#DejaVuSans-20"/>
      <use x="392.773438" xlink:href="#DejaVuSans-441"/>
     </g>
    </g>
   </g>
   <g id="matplotlib.axis_2">
    <g id="ytick_1">
     <g id="line2d_51">
      <path clip-path="url(#p2bfc7cc1bd)" d="M 135 640.8 
L 972 640.8 
" style="fill:none;stroke:#b0b0b0;stroke-linecap:square;stroke-width:2;"/>
     </g>
     <g id="line2d_52">
      <defs>
       <path d="M 0 0 
L -3.5 0 
" id="m5d06285679" style="stroke:#000000;stroke-width:0.8;"/>
      </defs>
      <g>
       <use style="stroke:#000000;stroke-width:0.8;" x="135" xlink:href="#m5d06285679" y="640.8"/>
      </g>
     </g>
     <g id="text_9">
      <!-- 0.0 -->
      <g transform="translate(112.096875 644.599219)scale(0.1 -0.1)">
       <defs>
        <path d="M 684 794 
L 1344 794 
L 1344 0 
L 684 0 
L 684 794 
z
" id="DejaVuSans-2e" transform="scale(0.015625)"/>
       </defs>
       <use xlink:href="#DejaVuSans-30"/>
       <use x="63.623047" xlink:href="#DejaVuSans-2e"/>
       <use x="95.410156" xlink:href="#DejaVuSans-30"/>
      </g>
     </g>
    </g>
    <g id="ytick_2">
     <g id="line2d_53">
      <path clip-path="url(#p2bfc7cc1bd)" d="M 135 559.270588 
L 972 559.270588 
" style="fill:none;stroke:#b0b0b0;stroke-linecap:square;stroke-width:2;"/>
     </g>
     <g id="line2d_54">
      <g>
       <use style="stroke:#000000;stroke-width:0.8;" x="135" xlink:href="#m5d06285679" y="559.270588"/>
      </g>
     </g>
     <g id="text_10">
      <!-- 0.5 -->
      <g transform="translate(112.096875 563.069807)scale(0.1 -0.1)">
       <defs>
        <path d="M 691 4666 
L 3169 4666 
L 3169 4134 
L 1269 4134 
L 1269 2991 
Q 1406 3038 1543 3061 
Q 1681 3084 1819 3084 
Q 2600 3084 3056 2656 
Q 3513 2228 3513 1497 
Q 3513 744 3044 326 
Q 2575 -91 1722 -91 
Q 1428 -91 1123 -41 
Q 819 9 494 109 
L 494 744 
Q 775 591 1075 516 
Q 1375 441 1709 441 
Q 2250 441 2565 725 
Q 2881 1009 2881 1497 
Q 2881 1984 2565 2268 
Q 2250 2553 1709 2553 
Q 1456 2553 1204 2497 
Q 953 2441 691 2322 
L 691 4666 
z
" id="DejaVuSans-35" transform="scale(0.015625)"/>
       </defs>
       <use xlink:href="#DejaVuSans-30"/>
       <use x="63.623047" xlink:href="#DejaVuSans-2e"/>
       <use x="95.410156" xlink:href="#DejaVuSans-35"/>
      </g>
     </g>
    </g>
    <g id="ytick_3">
     <g id="line2d_55">
      <path clip-path="url(#p2bfc7cc1bd)" d="M 135 477.741176 
L 972 477.741176 
" style="fill:none;stroke:#b0b0b0;stroke-linecap:square;stroke-width:2;"/>
     </g>
     <g id="line2d_56">
      <g>
       <use style="stroke:#000000;stroke-width:0.8;" x="135" xlink:href="#m5d06285679" y="477.741176"/>
      </g>
     </g>
     <g id="text_11">
      <!-- 1.0 -->
      <g transform="translate(112.096875 481.540395)scale(0.1 -0.1)">
       <use xlink:href="#DejaVuSans-31"/>
       <use x="63.623047" xlink:href="#DejaVuSans-2e"/>
       <use x="95.410156" xlink:href="#DejaVuSans-30"/>
      </g>
     </g>
    </g>
    <g id="ytick_4">
     <g id="line2d_57">
      <path clip-path="url(#p2bfc7cc1bd)" d="M 135 396.211765 
L 972 396.211765 
" style="fill:none;stroke:#b0b0b0;stroke-linecap:square;stroke-width:2;"/>
     </g>
     <g id="line2d_58">
      <g>
       <use style="stroke:#000000;stroke-width:0.8;" x="135" xlink:href="#m5d06285679" y="396.211765"/>
      </g>
     </g>
     <g id="text_12">
      <!-- 1.5 -->
      <g transform="translate(112.096875 400.010983)scale(0.1 -0.1)">
       <use xlink:href="#DejaVuSans-31"/>
       <use x="63.623047" xlink:href="#DejaVuSans-2e"/>
       <use x="95.410156" xlink:href="#DejaVuSans-35"/>
      </g>
     </g>
    </g>
    <g id="ytick_5">
     <g id="line2d_59">
      <path clip-path="url(#p2bfc7cc1bd)" d="M 135 314.682353 
L 972 314.682353 
" style="fill:none;stroke:#b0b0b0;stroke-linecap:square;stroke-width:2;"/>
     </g>
     <g id="line2d_60">
      <g>
       <use style="stroke:#000000;stroke-width:0.8;" x="135" xlink:href="#m5d06285679" y="314.682353"/>
      </g>
     </g>
     <g id="text_13">
      <!-- 2.0 -->
      <g transform="translate(112.096875 318.481572)scale(0.1 -0.1)">
       <use xlink:href="#DejaVuSans-32"/>
       <use x="63.623047" xlink:href="#DejaVuSans-2e"/>
       <use x="95.410156" xlink:href="#DejaVuSans-30"/>
      </g>
     </g>
    </g>
    <g id="ytick_6">
     <g id="line2d_61">
      <path clip-path="url(#p2bfc7cc1bd)" d="M 135 233.152941 
L 972 233.152941 
" style="fill:none;stroke:#b0b0b0;stroke-linecap:square;stroke-width:2;"/>
     </g>
     <g id="line2d_62">
      <g>
       <use style="stroke:#000000;stroke-width:0.8;" x="135" xlink:href="#m5d06285679" y="233.152941"/>
      </g>
     </g>
     <g id="text_14">
      <!-- 2.5 -->
      <g transform="translate(112.096875 236.95216)scale(0.1 -0.1)">
       <use xlink:href="#DejaVuSans-32"/>
       <use x="63.623047" xlink:href="#DejaVuSans-2e"/>
       <use x="95.410156" xlink:href="#DejaVuSans-35"/>
      </g>
     </g>
    </g>
    <g id="ytick_7">
     <g id="line2d_63">
      <path clip-path="url(#p2bfc7cc1bd)" d="M 135 151.623529 
L 972 151.623529 
" style="fill:none;stroke:#b0b0b0;stroke-linecap:square;stroke-width:2;"/>
     </g>
     <g id="line2d_64">
      <g>
       <use style="stroke:#000000;stroke-width:0.8;" x="135" xlink:href="#m5d06285679" y="151.623529"/>
      </g>
     </g>
     <g id="text_15">
      <!-- 3.0 -->
      <g transform="translate(112.096875 155.422748)scale(0.1 -0.1)">
       <defs>
        <path d="M 2597 2516 
Q 3050 2419 3304 2112 
Q 3559 1806 3559 1356 
Q 3559 666 3084 287 
Q 2609 -91 1734 -91 
Q 1441 -91 1130 -33 
Q 819 25 488 141 
L 488 750 
Q 750 597 1062 519 
Q 1375 441 1716 441 
Q 2309 441 2620 675 
Q 2931 909 2931 1356 
Q 2931 1769 2642 2001 
Q 2353 2234 1838 2234 
L 1294 2234 
L 1294 2753 
L 1863 2753 
Q 2328 2753 2575 2939 
Q 2822 3125 2822 3475 
Q 2822 3834 2567 4026 
Q 2313 4219 1838 4219 
Q 1578 4219 1281 4162 
Q 984 4106 628 3988 
L 628 4550 
Q 988 4650 1302 4700 
Q 1616 4750 1894 4750 
Q 2613 4750 3031 4423 
Q 3450 4097 3450 3541 
Q 3450 3153 3228 2886 
Q 3006 2619 2597 2516 
z
" id="DejaVuSans-33" transform="scale(0.015625)"/>
       </defs>
       <use xlink:href="#DejaVuSans-33"/>
       <use x="63.623047" xlink:href="#DejaVuSans-2e"/>
       <use x="95.410156" xlink:href="#DejaVuSans-30"/>
      </g>
     </g>
    </g>
    <g id="ytick_8">
     <g id="line2d_65">
      <path clip-path="url(#p2bfc7cc1bd)" d="M 135 624.494118 
L 972 624.494118 
" style="fill:none;stroke:#b0b0b0;stroke-dasharray:0.8,1.32;stroke-dashoffset:0;stroke-width:0.8;"/>
     </g>
     <g id="line2d_66">
      <defs>
       <path d="M 0 0 
L -2 0 
" id="m3c06f1d0de" style="stroke:#000000;stroke-width:0.6;"/>
      </defs>
      <g>
       <use style="stroke:#000000;stroke-width:0.6;" x="135" xlink:href="#m3c06f1d0de" y="624.494118"/>
      </g>
     </g>
    </g>
    <g id="ytick_9">
     <g id="line2d_67">
      <path clip-path="url(#p2bfc7cc1bd)" d="M 135 608.188235 
L 972 608.188235 
" style="fill:none;stroke:#b0b0b0;stroke-dasharray:0.8,1.32;stroke-dashoffset:0;stroke-width:0.8;"/>
     </g>
     <g id="line2d_68">
      <g>
       <use style="stroke:#000000;stroke-width:0.6;" x="135" xlink:href="#m3c06f1d0de" y="608.188235"/>
      </g>
     </g>
    </g>
    <g id="ytick_10">
     <g id="line2d_69">
      <path clip-path="url(#p2bfc7cc1bd)" d="M 135 591.882353 
L 972 591.882353 
" style="fill:none;stroke:#b0b0b0;stroke-dasharray:0.8,1.32;stroke-dashoffset:0;stroke-width:0.8;"/>
     </g>
     <g id="line2d_70">
      <g>
       <use style="stroke:#000000;stroke-width:0.6;" x="135" xlink:href="#m3c06f1d0de" y="591.882353"/>
      </g>
     </g>
    </g>
    <g id="ytick_11">
     <g id="line2d_71">
      <path clip-path="url(#p2bfc7cc1bd)" d="M 135 575.576471 
L 972 575.576471 
" style="fill:none;stroke:#b0b0b0;stroke-dasharray:0.8,1.32;stroke-dashoffset:0;stroke-width:0.8;"/>
     </g>
     <g id="line2d_72">
      <g>
       <use style="stroke:#000000;stroke-width:0.6;" x="135" xlink:href="#m3c06f1d0de" y="575.576471"/>
      </g>
     </g>
    </g>
    <g id="ytick_12">
     <g id="line2d_73">
      <path clip-path="url(#p2bfc7cc1bd)" d="M 135 542.964706 
L 972 542.964706 
" style="fill:none;stroke:#b0b0b0;stroke-dasharray:0.8,1.32;stroke-dashoffset:0;stroke-width:0.8;"/>
     </g>
     <g id="line2d_74">
      <g>
       <use style="stroke:#000000;stroke-width:0.6;" x="135" xlink:href="#m3c06f1d0de" y="542.964706"/>
      </g>
     </g>
    </g>
    <g id="ytick_13">
     <g id="line2d_75">
      <path clip-path="url(#p2bfc7cc1bd)" d="M 135 526.658824 
L 972 526.658824 
" style="fill:none;stroke:#b0b0b0;stroke-dasharray:0.8,1.32;stroke-dashoffset:0;stroke-width:0.8;"/>
     </g>
     <g id="line2d_76">
      <g>
       <use style="stroke:#000000;stroke-width:0.6;" x="135" xlink:href="#m3c06f1d0de" y="526.658824"/>
      </g>
     </g>
    </g>
    <g id="ytick_14">
     <g id="line2d_77">
      <path clip-path="url(#p2bfc7cc1bd)" d="M 135 510.352941 
L 972 510.352941 
" style="fill:none;stroke:#b0b0b0;stroke-dasharray:0.8,1.32;stroke-dashoffset:0;stroke-width:0.8;"/>
     </g>
     <g id="line2d_78">
      <g>
       <use style="stroke:#000000;stroke-width:0.6;" x="135" xlink:href="#m3c06f1d0de" y="510.352941"/>
      </g>
     </g>
    </g>
    <g id="ytick_15">
     <g id="line2d_79">
      <path clip-path="url(#p2bfc7cc1bd)" d="M 135 494.047059 
L 972 494.047059 
" style="fill:none;stroke:#b0b0b0;stroke-dasharray:0.8,1.32;stroke-dashoffset:0;stroke-width:0.8;"/>
     </g>
     <g id="line2d_80">
      <g>
       <use style="stroke:#000000;stroke-width:0.6;" x="135" xlink:href="#m3c06f1d0de" y="494.047059"/>
      </g>
     </g>
    </g>
    <g id="ytick_16">
     <g id="line2d_81">
      <path clip-path="url(#p2bfc7cc1bd)" d="M 135 461.435294 
L 972 461.435294 
" style="fill:none;stroke:#b0b0b0;stroke-dasharray:0.8,1.32;stroke-dashoffset:0;stroke-width:0.8;"/>
     </g>
     <g id="line2d_82">
      <g>
       <use style="stroke:#000000;stroke-width:0.6;" x="135" xlink:href="#m3c06f1d0de" y="461.435294"/>
      </g>
     </g>
    </g>
    <g id="ytick_17">
     <g id="line2d_83">
      <path clip-path="url(#p2bfc7cc1bd)" d="M 135 445.129412 
L 972 445.129412 
" style="fill:none;stroke:#b0b0b0;stroke-dasharray:0.8,1.32;stroke-dashoffset:0;stroke-width:0.8;"/>
     </g>
     <g id="line2d_84">
      <g>
       <use style="stroke:#000000;stroke-width:0.6;" x="135" xlink:href="#m3c06f1d0de" y="445.129412"/>
      </g>
     </g>
    </g>
    <g id="ytick_18">
     <g id="line2d_85">
      <path clip-path="url(#p2bfc7cc1bd)" d="M 135 428.823529 
L 972 428.823529 
" style="fill:none;stroke:#b0b0b0;stroke-dasharray:0.8,1.32;stroke-dashoffset:0;stroke-width:0.8;"/>
     </g>
     <g id="line2d_86">
      <g>
       <use style="stroke:#000000;stroke-width:0.6;" x="135" xlink:href="#m3c06f1d0de" y="428.823529"/>
      </g>
     </g>
    </g>
    <g id="ytick_19">
     <g id="line2d_87">
      <path clip-path="url(#p2bfc7cc1bd)" d="M 135 412.517647 
L 972 412.517647 
" style="fill:none;stroke:#b0b0b0;stroke-dasharray:0.8,1.32;stroke-dashoffset:0;stroke-width:0.8;"/>
     </g>
     <g id="line2d_88">
      <g>
       <use style="stroke:#000000;stroke-width:0.6;" x="135" xlink:href="#m3c06f1d0de" y="412.517647"/>
      </g>
     </g>
    </g>
    <g id="ytick_20">
     <g id="line2d_89">
      <path clip-path="url(#p2bfc7cc1bd)" d="M 135 379.905882 
L 972 379.905882 
" style="fill:none;stroke:#b0b0b0;stroke-dasharray:0.8,1.32;stroke-dashoffset:0;stroke-width:0.8;"/>
     </g>
     <g id="line2d_90">
      <g>
       <use style="stroke:#000000;stroke-width:0.6;" x="135" xlink:href="#m3c06f1d0de" y="379.905882"/>
      </g>
     </g>
    </g>
    <g id="ytick_21">
     <g id="line2d_91">
      <path clip-path="url(#p2bfc7cc1bd)" d="M 135 363.6 
L 972 363.6 
" style="fill:none;stroke:#b0b0b0;stroke-dasharray:0.8,1.32;stroke-dashoffset:0;stroke-width:0.8;"/>
     </g>
     <g id="line2d_92">
      <g>
       <use style="stroke:#000000;stroke-width:0.6;" x="135" xlink:href="#m3c06f1d0de" y="363.6"/>
      </g>
     </g>
    </g>
    <g id="ytick_22">
     <g id="line2d_93">
      <path clip-path="url(#p2bfc7cc1bd)" d="M 135 347.294118 
L 972 347.294118 
" style="fill:none;stroke:#b0b0b0;stroke-dasharray:0.8,1.32;stroke-dashoffset:0;stroke-width:0.8;"/>
     </g>
     <g id="line2d_94">
      <g>
       <use style="stroke:#000000;stroke-width:0.6;" x="135" xlink:href="#m3c06f1d0de" y="347.294118"/>
      </g>
     </g>
    </g>
    <g id="ytick_23">
     <g id="line2d_95">
      <path clip-path="url(#p2bfc7cc1bd)" d="M 135 330.988235 
L 972 330.988235 
" style="fill:none;stroke:#b0b0b0;stroke-dasharray:0.8,1.32;stroke-dashoffset:0;stroke-width:0.8;"/>
     </g>
     <g id="line2d_96">
      <g>
       <use style="stroke:#000000;stroke-width:0.6;" x="135" xlink:href="#m3c06f1d0de" y="330.988235"/>
      </g>
     </g>
    </g>
    <g id="ytick_24">
     <g id="line2d_97">
      <path clip-path="url(#p2bfc7cc1bd)" d="M 135 298.376471 
L 972 298.376471 
" style="fill:none;stroke:#b0b0b0;stroke-dasharray:0.8,1.32;stroke-dashoffset:0;stroke-width:0.8;"/>
     </g>
     <g id="line2d_98">
      <g>
       <use style="stroke:#000000;stroke-width:0.6;" x="135" xlink:href="#m3c06f1d0de" y="298.376471"/>
      </g>
     </g>
    </g>
    <g id="ytick_25">
     <g id="line2d_99">
      <path clip-path="url(#p2bfc7cc1bd)" d="M 135 282.070588 
L 972 282.070588 
" style="fill:none;stroke:#b0b0b0;stroke-dasharray:0.8,1.32;stroke-dashoffset:0;stroke-width:0.8;"/>
     </g>
     <g id="line2d_100">
      <g>
       <use style="stroke:#000000;stroke-width:0.6;" x="135" xlink:href="#m3c06f1d0de" y="282.070588"/>
      </g>
     </g>
    </g>
    <g id="ytick_26">
     <g id="line2d_101">
      <path clip-path="url(#p2bfc7cc1bd)" d="M 135 265.764706 
L 972 265.764706 
" style="fill:none;stroke:#b0b0b0;stroke-dasharray:0.8,1.32;stroke-dashoffset:0;stroke-width:0.8;"/>
     </g>
     <g id="line2d_102">
      <g>
       <use style="stroke:#000000;stroke-width:0.6;" x="135" xlink:href="#m3c06f1d0de" y="265.764706"/>
      </g>
     </g>
    </g>
    <g id="ytick_27">
     <g id="line2d_103">
      <path clip-path="url(#p2bfc7cc1bd)" d="M 135 249.458824 
L 972 249.458824 
" style="fill:none;stroke:#b0b0b0;stroke-dasharray:0.8,1.32;stroke-dashoffset:0;stroke-width:0.8;"/>
     </g>
     <g id="line2d_104">
      <g>
       <use style="stroke:#000000;stroke-width:0.6;" x="135" xlink:href="#m3c06f1d0de" y="249.458824"/>
      </g>
     </g>
    </g>
    <g id="ytick_28">
     <g id="line2d_105">
      <path clip-path="url(#p2bfc7cc1bd)" d="M 135 216.847059 
L 972 216.847059 
" style="fill:none;stroke:#b0b0b0;stroke-dasharray:0.8,1.32;stroke-dashoffset:0;stroke-width:0.8;"/>
     </g>
     <g id="line2d_106">
      <g>
       <use style="stroke:#000000;stroke-width:0.6;" x="135" xlink:href="#m3c06f1d0de" y="216.847059"/>
      </g>
     </g>
    </g>
    <g id="ytick_29">
     <g id="line2d_107">
      <path clip-path="url(#p2bfc7cc1bd)" d="M 135 200.541176 
L 972 200.541176 
" style="fill:none;stroke:#b0b0b0;stroke-dasharray:0.8,1.32;stroke-dashoffset:0;stroke-width:0.8;"/>
     </g>
     <g id="line2d_108">
      <g>
       <use style="stroke:#000000;stroke-width:0.6;" x="135" xlink:href="#m3c06f1d0de" y="200.541176"/>
      </g>
     </g>
    </g>
    <g id="ytick_30">
     <g id="line2d_109">
      <path clip-path="url(#p2bfc7cc1bd)" d="M 135 184.235294 
L 972 184.235294 
" style="fill:none;stroke:#b0b0b0;stroke-dasharray:0.8,1.32;stroke-dashoffset:0;stroke-width:0.8;"/>
     </g>
     <g id="line2d_110">
      <g>
       <use style="stroke:#000000;stroke-width:0.6;" x="135" xlink:href="#m3c06f1d0de" y="184.235294"/>
      </g>
     </g>
    </g>
    <g id="ytick_31">
     <g id="line2d_111">
      <path clip-path="url(#p2bfc7cc1bd)" d="M 135 167.929412 
L 972 167.929412 
" style="fill:none;stroke:#b0b0b0;stroke-dasharray:0.8,1.32;stroke-dashoffset:0;stroke-width:0.8;"/>
     </g>
     <g id="line2d_112">
      <g>
       <use style="stroke:#000000;stroke-width:0.6;" x="135" xlink:href="#m3c06f1d0de" y="167.929412"/>
      </g>
     </g>
    </g>
    <g id="ytick_32">
     <g id="line2d_113">
      <path clip-path="url(#p2bfc7cc1bd)" d="M 135 135.317647 
L 972 135.317647 
" style="fill:none;stroke:#b0b0b0;stroke-dasharray:0.8,1.32;stroke-dashoffset:0;stroke-width:0.8;"/>
     </g>
     <g id="line2d_114">
      <g>
       <use style="stroke:#000000;stroke-width:0.6;" x="135" xlink:href="#m3c06f1d0de" y="135.317647"/>
      </g>
     </g>
    </g>
    <g id="ytick_33">
     <g id="line2d_115">
      <path clip-path="url(#p2bfc7cc1bd)" d="M 135 119.011765 
L 972 119.011765 
" style="fill:none;stroke:#b0b0b0;stroke-dasharray:0.8,1.32;stroke-dashoffset:0;stroke-width:0.8;"/>
     </g>
     <g id="line2d_116">
      <g>
       <use style="stroke:#000000;stroke-width:0.6;" x="135" xlink:href="#m3c06f1d0de" y="119.011765"/>
      </g>
     </g>
    </g>
    <g id="ytick_34">
     <g id="line2d_117">
      <path clip-path="url(#p2bfc7cc1bd)" d="M 135 102.705882 
L 972 102.705882 
" style="fill:none;stroke:#b0b0b0;stroke-dasharray:0.8,1.32;stroke-dashoffset:0;stroke-width:0.8;"/>
     </g>
     <g id="line2d_118">
      <g>
       <use style="stroke:#000000;stroke-width:0.6;" x="135" xlink:href="#m3c06f1d0de" y="102.705882"/>
      </g>
     </g>
    </g>
    <g id="text_16">
     <!-- Напряжение, В -->
     <g transform="translate(106.017187 403.659375)rotate(-90)scale(0.1 -0.1)">
      <defs>
       <path d="M 628 4666 
L 1259 4666 
L 1259 2753 
L 3553 2753 
L 3553 4666 
L 4184 4666 
L 4184 0 
L 3553 0 
L 3553 2222 
L 1259 2222 
L 1259 0 
L 628 0 
L 628 4666 
z
" id="DejaVuSans-41d" transform="scale(0.015625)"/>
       <path d="M 2194 1759 
Q 1497 1759 1228 1600 
Q 959 1441 959 1056 
Q 959 750 1161 570 
Q 1363 391 1709 391 
Q 2188 391 2477 730 
Q 2766 1069 2766 1631 
L 2766 1759 
L 2194 1759 
z
M 3341 1997 
L 3341 0 
L 2766 0 
L 2766 531 
Q 2569 213 2275 61 
Q 1981 -91 1556 -91 
Q 1019 -91 701 211 
Q 384 513 384 1019 
Q 384 1609 779 1909 
Q 1175 2209 1959 2209 
L 2766 2209 
L 2766 2266 
Q 2766 2663 2505 2880 
Q 2244 3097 1772 3097 
Q 1472 3097 1187 3025 
Q 903 2953 641 2809 
L 641 3341 
Q 956 3463 1253 3523 
Q 1550 3584 1831 3584 
Q 2591 3584 2966 3190 
Q 3341 2797 3341 1997 
z
" id="DejaVuSans-430" transform="scale(0.015625)"/>
       <path d="M 3603 3500 
L 3603 0 
L 3025 0 
L 3025 3041 
L 1159 3041 
L 1159 0 
L 581 0 
L 581 3500 
L 3603 3500 
z
" id="DejaVuSans-43f" transform="scale(0.015625)"/>
       <path d="M 2597 3500 
L 3169 3500 
L 3169 1856 
L 4697 3500 
L 5366 3500 
L 4109 2153 
L 5547 0 
L 4931 0 
L 3753 1769 
L 3169 1141 
L 3169 0 
L 2597 0 
L 2597 1141 
L 2013 1769 
L 834 0 
L 219 0 
L 1656 2153 
L 400 3500 
L 1069 3500 
L 2597 1856 
L 2597 3500 
z
" id="DejaVuSans-436" transform="scale(0.015625)"/>
       <path d="M 581 3500 
L 1159 3500 
L 1159 2072 
L 3025 2072 
L 3025 3500 
L 3603 3500 
L 3603 0 
L 3025 0 
L 3025 1613 
L 1159 1613 
L 1159 0 
L 581 0 
L 581 3500 
z
" id="DejaVuSans-43d" transform="scale(0.015625)"/>
       <path d="M 3578 3500 
L 3578 0 
L 3006 0 
L 3006 2809 
L 1319 0 
L 581 0 
L 581 3500 
L 1153 3500 
L 1153 697 
L 2838 3500 
L 3578 3500 
z
" id="DejaVuSans-438" transform="scale(0.015625)"/>
      </defs>
      <use xlink:href="#DejaVuSans-41d"/>
      <use x="75.195312" xlink:href="#DejaVuSans-430"/>
      <use x="136.474609" xlink:href="#DejaVuSans-43f"/>
      <use x="201.855469" xlink:href="#DejaVuSans-440"/>
      <use x="265.332031" xlink:href="#DejaVuSans-44f"/>
      <use x="325.488281" xlink:href="#DejaVuSans-436"/>
      <use x="415.576172" xlink:href="#DejaVuSans-435"/>
      <use x="477.099609" xlink:href="#DejaVuSans-43d"/>
      <use x="542.480469" xlink:href="#DejaVuSans-438"/>
      <use x="607.470703" xlink:href="#DejaVuSans-435"/>
      <use x="668.994141" xlink:href="#DejaVuSans-2c"/>
      <use x="700.78125" xlink:href="#DejaVuSans-20"/>
      <use x="732.568359" xlink:href="#DejaVuSans-412"/>
     </g>
    </g>
   </g>
   <g id="line2d_119">
    <path clip-path="url(#p2bfc7cc1bd)" d="M 135 639.006353 
L 135.932071 631.831765 
L 138.728285 621.069882 
L 139.660356 613.895294 
L 141.524499 606.720706 
L 142.45657 599.546118 
L 143.388641 599.546118 
L 144.320713 592.371529 
L 145.252784 592.371529 
L 146.184855 585.196941 
L 147.116927 585.196941 
L 148.048998 574.435059 
L 160.165924 527.800235 
L 161.097996 527.800235 
L 162.030067 520.625647 
L 165.758352 506.276471 
L 166.690423 506.276471 
L 167.622494 499.101882 
L 168.554566 499.101882 
L 176.011136 470.403529 
L 176.943207 470.403529 
L 180.671492 456.054353 
L 181.603563 456.054353 
L 185.331849 441.705176 
L 186.26392 441.705176 
L 188.128062 434.530588 
L 189.060134 434.530588 
L 190.924276 427.356 
L 191.856347 427.356 
L 193.72049 420.181412 
L 194.652561 420.181412 
L 196.516704 413.006824 
L 198.380846 413.006824 
L 199.312918 405.832235 
L 200.244989 405.832235 
L 201.17706 402.244941 
L 202.109131 402.244941 
L 203.973274 395.070353 
L 204.905345 395.070353 
L 205.837416 391.483059 
L 206.769488 391.483059 
L 208.63363 384.308471 
L 210.497773 384.308471 
L 212.361915 377.133882 
L 214.226058 377.133882 
L 216.0902 369.959294 
L 217.022272 369.959294 
L 217.954343 366.372 
L 218.886414 366.372 
L 219.818486 362.784706 
L 220.750557 362.784706 
L 221.682628 359.197412 
L 222.614699 359.197412 
L 223.546771 355.610118 
L 226.342984 355.610118 
L 227.275056 348.435529 
L 229.139198 348.435529 
L 230.071269 344.848235 
L 231.003341 344.848235 
L 231.935412 341.260941 
L 233.799555 341.260941 
L 234.731626 337.673647 
L 235.663697 337.673647 
L 236.595768 334.086353 
L 237.52784 334.086353 
L 238.459911 330.499059 
L 241.256125 330.499059 
L 243.120267 323.324471 
L 244.98441 323.324471 
L 245.916481 319.737176 
L 247.780624 319.737176 
L 248.712695 316.149882 
L 249.644766 316.149882 
L 250.576837 312.562588 
L 253.373051 312.562588 
L 254.305122 308.975294 
L 255.237194 308.975294 
L 256.169265 305.388 
L 258.033408 305.388 
L 258.965479 301.800706 
L 261.761693 301.800706 
L 263.625835 294.626118 
L 269.218263 294.626118 
L 271.082405 287.451529 
L 274.81069 287.451529 
L 275.742762 283.864235 
L 278.538976 283.864235 
L 279.471047 280.276941 
L 281.335189 280.276941 
L 282.267261 276.689647 
L 284.131403 276.689647 
L 285.063474 273.102353 
L 288.791759 273.102353 
L 289.723831 269.515059 
L 293.452116 269.515059 
L 294.384187 265.927765 
L 298.112472 265.927765 
L 299.044543 262.340471 
L 302.772829 262.340471 
L 303.7049 258.753176 
L 305.569042 258.753176 
L 306.501114 255.165882 
L 307.433185 258.753176 
L 308.365256 255.165882 
L 311.16147 255.165882 
L 312.093541 251.578588 
L 318.61804 251.578588 
L 319.550111 247.991294 
L 324.210468 247.991294 
L 325.142539 244.404 
L 329.802895 244.404 
L 330.734967 240.816706 
L 334.463252 240.816706 
L 335.395323 237.229412 
L 345.648107 237.229412 
L 346.580178 233.642118 
L 354.036748 233.642118 
L 354.96882 230.054824 
L 355.900891 233.642118 
L 356.832962 230.054824 
L 361.493318 230.054824 
L 362.42539 226.467529 
L 363.357461 230.054824 
L 364.289532 226.467529 
L 372.678174 226.467529 
L 373.610245 222.880235 
L 381.998886 222.880235 
L 382.930958 219.292941 
L 391.319599 219.292941 
L 392.25167 215.705647 
L 393.183742 219.292941 
L 394.115813 219.292941 
L 395.047884 215.705647 
L 403.436526 215.705647 
L 404.368597 212.118353 
L 405.300668 215.705647 
L 406.232739 215.705647 
L 407.164811 212.118353 
L 408.096882 215.705647 
L 409.028953 215.705647 
L 409.961024 212.118353 
L 417.417595 212.118353 
L 418.349666 208.531059 
L 419.281737 212.118353 
L 420.213808 212.118353 
L 421.14588 208.531059 
L 422.077951 208.531059 
L 423.010022 212.118353 
L 425.806236 212.118353 
L 426.738307 208.531059 
L 444.447661 208.531059 
L 445.379733 204.943765 
L 446.311804 208.531059 
L 447.243875 204.943765 
L 467.749443 204.943765 
L 468.681514 201.356471 
L 469.613586 201.356471 
L 470.545657 204.943765 
L 471.477728 204.943765 
L 472.4098 201.356471 
L 473.341871 201.356471 
L 474.273942 204.943765 
L 475.206013 201.356471 
L 491.051225 201.356471 
L 491.983296 197.769176 
L 492.915367 204.943765 
L 493.847439 208.531059 
L 494.77951 208.531059 
L 495.711581 215.705647 
L 497.575724 222.880235 
L 498.507795 230.054824 
L 499.439866 230.054824 
L 500.371938 237.229412 
L 501.304009 237.229412 
L 502.23608 244.404 
L 504.100223 251.578588 
L 505.032294 251.578588 
L 505.964365 258.753176 
L 506.896437 258.753176 
L 516.217149 294.626118 
L 517.14922 294.626118 
L 521.809577 312.562588 
L 522.741648 312.562588 
L 523.673719 319.737176 
L 524.605791 319.737176 
L 525.537862 323.324471 
L 526.469933 323.324471 
L 531.13029 341.260941 
L 532.062361 341.260941 
L 535.790646 355.610118 
L 536.722717 355.610118 
L 538.58686 362.784706 
L 539.518931 362.784706 
L 540.451002 366.372 
L 541.383073 366.372 
L 544.179287 377.133882 
L 545.111359 377.133882 
L 546.04343 380.721176 
L 546.975501 380.721176 
L 548.839644 387.895765 
L 549.771715 387.895765 
L 551.635857 395.070353 
L 552.567929 395.070353 
L 553.5 398.657647 
L 554.432071 398.657647 
L 555.364143 402.244941 
L 556.296214 402.244941 
L 557.228285 405.832235 
L 558.160356 405.832235 
L 559.092428 409.419529 
L 560.024499 409.419529 
L 560.95657 413.006824 
L 561.888641 413.006824 
L 562.820713 416.594118 
L 563.752784 416.594118 
L 565.616927 423.768706 
L 567.481069 423.768706 
L 568.41314 427.356 
L 569.345212 427.356 
L 570.277283 430.943294 
L 571.209354 430.943294 
L 573.073497 438.117882 
L 574.937639 438.117882 
L 575.86971 441.705176 
L 576.801782 441.705176 
L 577.733853 445.292471 
L 578.665924 445.292471 
L 579.597996 448.879765 
L 580.530067 448.879765 
L 581.462138 452.467059 
L 583.326281 452.467059 
L 584.258352 456.054353 
L 585.190423 456.054353 
L 586.122494 459.641647 
L 587.054566 459.641647 
L 587.986637 463.228941 
L 588.918708 463.228941 
L 589.85078 466.816235 
L 592.646993 466.816235 
L 594.511136 473.990824 
L 596.375278 473.990824 
L 597.30735 477.578118 
L 598.239421 477.578118 
L 599.171492 481.165412 
L 601.967706 481.165412 
L 602.899777 484.752706 
L 603.831849 484.752706 
L 604.76392 488.34 
L 606.628062 488.34 
L 607.560134 491.927294 
L 608.492205 491.927294 
L 609.424276 495.514588 
L 611.288419 495.514588 
L 612.22049 499.101882 
L 615.016704 499.101882 
L 615.948775 502.689176 
L 617.812918 502.689176 
L 618.744989 506.276471 
L 620.609131 506.276471 
L 621.541203 509.863765 
L 624.337416 509.863765 
L 625.269488 513.451059 
L 626.201559 513.451059 
L 627.13363 517.038353 
L 629.929844 517.038353 
L 630.861915 520.625647 
L 632.726058 520.625647 
L 633.658129 524.212941 
L 634.5902 524.212941 
L 635.522272 527.800235 
L 641.114699 527.800235 
L 642.046771 531.387529 
L 643.910913 531.387529 
L 644.842984 534.974824 
L 646.707127 534.974824 
L 647.639198 538.562118 
L 651.367483 538.562118 
L 652.299555 542.149412 
L 655.095768 542.149412 
L 656.02784 545.736706 
L 657.891982 545.736706 
L 658.824053 549.324 
L 662.552339 549.324 
L 663.48441 552.911294 
L 667.212695 552.911294 
L 668.144766 556.498588 
L 669.076837 552.911294 
L 670.008909 556.498588 
L 671.873051 556.498588 
L 672.805122 560.085882 
L 676.533408 560.085882 
L 677.465479 563.673176 
L 681.193764 563.673176 
L 682.125835 567.260471 
L 685.85412 567.260471 
L 686.786192 570.847765 
L 692.378619 570.847765 
L 693.31069 574.435059 
L 697.038976 574.435059 
L 697.971047 578.022353 
L 701.699332 578.022353 
L 702.631403 581.609647 
L 703.563474 578.022353 
L 704.495546 581.609647 
L 707.291759 581.609647 
L 708.223831 585.196941 
L 717.544543 585.196941 
L 718.476615 588.784235 
L 725.001114 588.784235 
L 725.933185 592.371529 
L 730.593541 592.371529 
L 731.525612 595.958824 
L 739.914254 595.958824 
L 740.846325 599.546118 
L 750.167038 599.546118 
L 751.099109 603.133412 
L 758.555679 603.133412 
L 759.487751 606.720706 
L 760.419822 603.133412 
L 761.351893 606.720706 
L 771.604677 606.720706 
L 772.536748 610.308 
L 780.92539 610.308 
L 781.857461 613.895294 
L 796.770601 613.895294 
L 797.702673 617.482588 
L 812.615813 617.482588 
L 813.547884 621.069882 
L 814.479955 617.482588 
L 815.412027 621.069882 
L 830.325167 621.069882 
L 831.257238 624.657176 
L 850.830735 624.657176 
L 851.762806 628.244471 
L 852.694878 624.657176 
L 855.491091 624.657176 
L 856.423163 628.244471 
L 857.355234 628.244471 
L 858.287305 624.657176 
L 859.219376 628.244471 
L 877.860802 628.244471 
L 878.792873 631.831765 
L 879.724944 628.244471 
L 887.181514 628.244471 
L 888.113586 631.831765 
L 889.977728 631.831765 
L 890.9098 628.244471 
L 891.841871 631.831765 
L 917.007795 631.831765 
L 917.939866 635.419059 
L 918.871938 631.831765 
L 920.73608 631.831765 
L 921.668151 635.419059 
L 970.135857 635.419059 
L 971.067929 639.006353 
L 971.067929 639.006353 
" style="fill:none;stroke:#0000ff;stroke-linecap:square;stroke-width:1.5;"/>
    <defs>
     <path d="M 0 2.5 
C 0.663008 2.5 1.29895 2.236584 1.767767 1.767767 
C 2.236584 1.29895 2.5 0.663008 2.5 0 
C 2.5 -0.663008 2.236584 -1.29895 1.767767 -1.767767 
C 1.29895 -2.236584 0.663008 -2.5 0 -2.5 
C -0.663008 -2.5 -1.29895 -2.236584 -1.767767 -1.767767 
C -2.236584 -1.29895 -2.5 -0.663008 -2.5 0 
C -2.5 0.663008 -2.236584 1.29895 -1.767767 1.767767 
C -1.29895 2.236584 -0.663008 2.5 0 2.5 
z
" id="mae1296c743" style="stroke:#0000ff;"/>
    </defs>
    <g clip-path="url(#p2bfc7cc1bd)">
     <use style="fill:#ff0000;stroke:#0000ff;" x="135" xlink:href="#mae1296c743" y="639.006353"/>
     <use style="fill:#ff0000;stroke:#0000ff;" x="228.207127" xlink:href="#mae1296c743" y="348.435529"/>
     <use style="fill:#ff0000;stroke:#0000ff;" x="321.414254" xlink:href="#mae1296c743" y="247.991294"/>
     <use style="fill:#ff0000;stroke:#0000ff;" x="414.621381" xlink:href="#mae1296c743" y="212.118353"/>
     <use style="fill:#ff0000;stroke:#0000ff;" x="507.828508" xlink:href="#mae1296c743" y="262.340471"/>
     <use style="fill:#ff0000;stroke:#0000ff;" x="601.035635" xlink:href="#mae1296c743" y="481.165412"/>
     <use style="fill:#ff0000;stroke:#0000ff;" x="694.242762" xlink:href="#mae1296c743" y="574.435059"/>
     <use style="fill:#ff0000;stroke:#0000ff;" x="787.449889" xlink:href="#mae1296c743" y="613.895294"/>
     <use style="fill:#ff0000;stroke:#0000ff;" x="880.657016" xlink:href="#mae1296c743" y="628.244471"/>
    </g>
   </g>
   <g id="patch_3">
    <path d="M 135 640.8 
L 135 86.4 
" style="fill:none;stroke:#000000;stroke-linecap:square;stroke-linejoin:miter;stroke-width:0.8;"/>
   </g>
   <g id="patch_4">
    <path d="M 972 640.8 
L 972 86.4 
" style="fill:none;stroke:#000000;stroke-linecap:square;stroke-linejoin:miter;stroke-width:0.8;"/>
   </g>
   <g id="patch_5">
    <path d="M 135 640.8 
L 972 640.8 
" style="fill:none;stroke:#000000;stroke-linecap:square;stroke-linejoin:miter;stroke-width:0.8;"/>
   </g>
   <g id="patch_6">
    <path d="M 135 86.4 
L 972 86.4 
" style="fill:none;stroke:#000000;stroke-linecap:square;stroke-linejoin:miter;stroke-width:0.8;"/>
   </g>
   <g id="text_17">
    <g id="patch_7">
     <path d="M 4304.453445 265.32204 
L 4429.305008 265.32204 
L 4429.305008 247.643915 
L 4304.453445 247.643915 
z
" style="fill:#ff0000;opacity:0.5;stroke:#000000;stroke-linejoin:miter;"/>
    </g>
    <!-- Время зарядки: 5.13 c -->
    <g transform="translate(4308.453445 259.242353)scale(0.1 -0.1)">
     <defs>
      <path d="M 2206 1888 
Q 2594 1813 2809 1584 
Q 3025 1356 3025 1019 
Q 3025 478 2622 193 
Q 2219 -91 1475 -91 
Q 1225 -91 961 -47 
Q 697 -3 416 84 
L 416 619 
Q 638 503 903 445 
Q 1169 388 1459 388 
Q 1931 388 2195 563 
Q 2459 738 2459 1019 
Q 2459 1294 2225 1461 
Q 1991 1628 1563 1628 
L 1100 1628 
L 1100 2103 
L 1584 2103 
Q 1947 2103 2158 2242 
Q 2369 2381 2369 2600 
Q 2369 2800 2151 2944 
Q 1934 3088 1563 3088 
Q 1341 3088 1089 3047 
Q 838 3006 534 2916 
L 534 3438 
Q 841 3513 1106 3550 
Q 1372 3588 1609 3588 
Q 2222 3588 2576 3342 
Q 2931 3097 2931 2656 
Q 2931 2366 2743 2164 
Q 2556 1963 2206 1888 
z
" id="DejaVuSans-437" transform="scale(0.015625)"/>
      <path d="M 1384 459 
L 3053 459 
L 3053 3041 
L 1844 3041 
L 1844 2603 
Q 1844 1316 1475 628 
L 1384 459 
z
M 550 459 
Q 834 584 959 850 
Q 1266 1509 1266 2838 
L 1266 3500 
L 3631 3500 
L 3631 459 
L 4091 459 
L 4091 -884 
L 3631 -884 
L 3631 0 
L 794 0 
L 794 -884 
L 334 -884 
L 334 459 
L 550 459 
z
" id="DejaVuSans-434" transform="scale(0.015625)"/>
      <path d="M 581 3500 
L 1153 3500 
L 1153 1856 
L 2775 3500 
L 3481 3500 
L 2144 2147 
L 3653 0 
L 3009 0 
L 1769 1766 
L 1153 1141 
L 1153 0 
L 581 0 
L 581 3500 
z
" id="DejaVuSans-43a" transform="scale(0.015625)"/>
      <path d="M 750 794 
L 1409 794 
L 1409 0 
L 750 0 
L 750 794 
z
M 750 3309 
L 1409 3309 
L 1409 2516 
L 750 2516 
L 750 3309 
z
" id="DejaVuSans-3a" transform="scale(0.015625)"/>
      <path d="M 3122 3366 
L 3122 2828 
Q 2878 2963 2633 3030 
Q 2388 3097 2138 3097 
Q 1578 3097 1268 2742 
Q 959 2388 959 1747 
Q 959 1106 1268 751 
Q 1578 397 2138 397 
Q 2388 397 2633 464 
Q 2878 531 3122 666 
L 3122 134 
Q 2881 22 2623 -34 
Q 2366 -91 2075 -91 
Q 1284 -91 818 406 
Q 353 903 353 1747 
Q 353 2603 823 3093 
Q 1294 3584 2113 3584 
Q 2378 3584 2631 3529 
Q 2884 3475 3122 3366 
z
" id="DejaVuSans-63" transform="scale(0.015625)"/>
     </defs>
     <use xlink:href="#DejaVuSans-412"/>
     <use x="68.603516" xlink:href="#DejaVuSans-440"/>
     <use x="132.080078" xlink:href="#DejaVuSans-435"/>
     <use x="193.603516" xlink:href="#DejaVuSans-43c"/>
     <use x="269.042969" xlink:href="#DejaVuSans-44f"/>
     <use x="329.199219" xlink:href="#DejaVuSans-20"/>
     <use x="360.986328" xlink:href="#DejaVuSans-437"/>
     <use x="414.160156" xlink:href="#DejaVuSans-430"/>
     <use x="475.439453" xlink:href="#DejaVuSans-440"/>
     <use x="538.916016" xlink:href="#DejaVuSans-44f"/>
     <use x="599.072266" xlink:href="#DejaVuSans-434"/>
     <use x="668.212891" xlink:href="#DejaVuSans-43a"/>
     <use x="728.613281" xlink:href="#DejaVuSans-438"/>
     <use x="793.603516" xlink:href="#DejaVuSans-3a"/>
     <use x="827.294922" xlink:href="#DejaVuSans-20"/>
     <use x="859.082031" xlink:href="#DejaVuSans-35"/>
     <use x="922.705078" xlink:href="#DejaVuSans-2e"/>
     <use x="954.492188" xlink:href="#DejaVuSans-31"/>
     <use x="1018.115234" xlink:href="#DejaVuSans-33"/>
     <use x="1081.738281" xlink:href="#DejaVuSans-20"/>
     <use x="1113.525391" xlink:href="#DejaVuSans-63"/>
    </g>
   </g>
   <g id="text_18">
    <g id="patch_8">
     <path d="M 4304.453445 320.76204 
L 4435.653445 320.76204 
L 4435.653445 303.083915 
L 4304.453445 303.083915 
z
" style="fill:#ff0000;opacity:0.5;stroke:#000000;stroke-linejoin:miter;"/>
    </g>
    <!-- Время разрядки: 6.90 c -->
    <g transform="translate(4308.453445 314.682353)scale(0.1 -0.1)">
     <defs>
      <path d="M 703 97 
L 703 672 
Q 941 559 1184 500 
Q 1428 441 1663 441 
Q 2288 441 2617 861 
Q 2947 1281 2994 2138 
Q 2813 1869 2534 1725 
Q 2256 1581 1919 1581 
Q 1219 1581 811 2004 
Q 403 2428 403 3163 
Q 403 3881 828 4315 
Q 1253 4750 1959 4750 
Q 2769 4750 3195 4129 
Q 3622 3509 3622 2328 
Q 3622 1225 3098 567 
Q 2575 -91 1691 -91 
Q 1453 -91 1209 -44 
Q 966 3 703 97 
z
M 1959 2075 
Q 2384 2075 2632 2365 
Q 2881 2656 2881 3163 
Q 2881 3666 2632 3958 
Q 2384 4250 1959 4250 
Q 1534 4250 1286 3958 
Q 1038 3666 1038 3163 
Q 1038 2656 1286 2365 
Q 1534 2075 1959 2075 
z
" id="DejaVuSans-39" transform="scale(0.015625)"/>
     </defs>
     <use xlink:href="#DejaVuSans-412"/>
     <use x="68.603516" xlink:href="#DejaVuSans-440"/>
     <use x="132.080078" xlink:href="#DejaVuSans-435"/>
     <use x="193.603516" xlink:href="#DejaVuSans-43c"/>
     <use x="269.042969" xlink:href="#DejaVuSans-44f"/>
     <use x="329.199219" xlink:href="#DejaVuSans-20"/>
     <use x="360.986328" xlink:href="#DejaVuSans-440"/>
     <use x="424.462891" xlink:href="#DejaVuSans-430"/>
     <use x="485.742188" xlink:href="#DejaVuSans-437"/>
     <use x="538.916016" xlink:href="#DejaVuSans-440"/>
     <use x="602.392578" xlink:href="#DejaVuSans-44f"/>
     <use x="662.548828" xlink:href="#DejaVuSans-434"/>
     <use x="731.689453" xlink:href="#DejaVuSans-43a"/>
     <use x="792.089844" xlink:href="#DejaVuSans-438"/>
     <use x="857.080078" xlink:href="#DejaVuSans-3a"/>
     <use x="890.771484" xlink:href="#DejaVuSans-20"/>
     <use x="922.558594" xlink:href="#DejaVuSans-36"/>
     <use x="986.181641" xlink:href="#DejaVuSans-2e"/>
     <use x="1017.96875" xlink:href="#DejaVuSans-39"/>
     <use x="1081.591797" xlink:href="#DejaVuSans-30"/>
     <use x="1145.214844" xlink:href="#DejaVuSans-20"/>
     <use x="1177.001953" xlink:href="#DejaVuSans-63"/>
    </g>
   </g>
   <g id="text_19">
    <!-- Зависимость напряжения на конденсаторе от времени по мере его зарядки и разрядки -->
    <g transform="translate(155.349375 80.4)scale(0.17 -0.17)">
     <defs>
      <path d="M 1828 4750 
Q 2597 4750 3084 4423 
Q 3572 4097 3572 3541 
Q 3572 3153 3350 2886 
Q 3128 2619 2719 2516 
Q 3172 2419 3426 2112 
Q 3681 1806 3681 1356 
Q 3681 638 3126 273 
Q 2572 -91 1828 -91 
Q 1447 -91 1003 12 
Q 559 116 422 203 
L 422 853 
Q 900 575 1164 508 
Q 1428 441 1816 441 
Q 2403 441 2728 666 
Q 3053 891 3053 1356 
Q 3053 1769 2764 2001 
Q 2475 2234 1866 2234 
L 1228 2234 
L 1228 2753 
L 1891 2753 
Q 2450 2753 2697 2939 
Q 2944 3125 2944 3475 
Q 2944 3834 2689 4026 
Q 2434 4219 1816 4219 
Q 1397 4219 1253 4181 
Q 1109 4144 469 3903 
L 469 4519 
Q 822 4644 1190 4697 
Q 1559 4750 1828 4750 
z
" id="DejaVuSans-417" transform="scale(0.015625)"/>
      <path d="M 1156 1613 
L 1156 459 
L 1975 459 
Q 2369 459 2575 607 
Q 2781 756 2781 1038 
Q 2781 1319 2575 1466 
Q 2369 1613 1975 1613 
L 1156 1613 
z
M 1156 3041 
L 1156 2072 
L 1913 2072 
Q 2238 2072 2444 2201 
Q 2650 2331 2650 2563 
Q 2650 2794 2444 2917 
Q 2238 3041 1913 3041 
L 1156 3041 
z
M 581 3500 
L 1950 3500 
Q 2566 3500 2897 3275 
Q 3228 3050 3228 2634 
Q 3228 2313 3059 2123 
Q 2891 1934 2559 1888 
Q 2956 1813 3175 1575 
Q 3394 1338 3394 981 
Q 3394 513 3033 256 
Q 2672 0 2003 0 
L 581 0 
L 581 3500 
z
" id="DejaVuSans-432" transform="scale(0.015625)"/>
      <path d="M 1959 3097 
Q 1497 3097 1228 2736 
Q 959 2375 959 1747 
Q 959 1119 1226 758 
Q 1494 397 1959 397 
Q 2419 397 2687 759 
Q 2956 1122 2956 1747 
Q 2956 2369 2687 2733 
Q 2419 3097 1959 3097 
z
M 1959 3584 
Q 2709 3584 3137 3096 
Q 3566 2609 3566 1747 
Q 3566 888 3137 398 
Q 2709 -91 1959 -91 
Q 1206 -91 779 398 
Q 353 888 353 1747 
Q 353 2609 779 3096 
Q 1206 3584 1959 3584 
z
" id="DejaVuSans-43e" transform="scale(0.015625)"/>
      <path d="M 188 3500 
L 3541 3500 
L 3541 3041 
L 2147 3041 
L 2147 0 
L 1581 0 
L 1581 3041 
L 188 3041 
L 188 3500 
z
" id="DejaVuSans-442" transform="scale(0.015625)"/>
      <path d="M 2781 1038 
Q 2781 1319 2576 1466 
Q 2372 1613 1978 1613 
L 1159 1613 
L 1159 459 
L 1978 459 
Q 2372 459 2576 607 
Q 2781 756 2781 1038 
z
M 581 3500 
L 1159 3500 
L 1159 2072 
L 2003 2072 
Q 2672 2072 3033 1817 
Q 3394 1563 3394 1038 
Q 3394 513 3033 256 
Q 2672 0 2003 0 
L 581 0 
L 581 3500 
z
" id="DejaVuSans-44c" transform="scale(0.015625)"/>
      <path d="M 581 0 
L 581 3500 
L 3050 3500 
L 3050 3041 
L 1159 3041 
L 1159 0 
L 581 0 
z
" id="DejaVuSans-433" transform="scale(0.015625)"/>
     </defs>
     <use xlink:href="#DejaVuSans-417"/>
     <use x="64.111328" xlink:href="#DejaVuSans-430"/>
     <use x="125.390625" xlink:href="#DejaVuSans-432"/>
     <use x="184.326172" xlink:href="#DejaVuSans-438"/>
     <use x="249.316406" xlink:href="#DejaVuSans-441"/>
     <use x="304.296875" xlink:href="#DejaVuSans-438"/>
     <use x="369.287109" xlink:href="#DejaVuSans-43c"/>
     <use x="444.726562" xlink:href="#DejaVuSans-43e"/>
     <use x="505.908203" xlink:href="#DejaVuSans-441"/>
     <use x="560.888672" xlink:href="#DejaVuSans-442"/>
     <use x="619.140625" xlink:href="#DejaVuSans-44c"/>
     <use x="678.076172" xlink:href="#DejaVuSans-20"/>
     <use x="709.863281" xlink:href="#DejaVuSans-43d"/>
     <use x="775.244141" xlink:href="#DejaVuSans-430"/>
     <use x="836.523438" xlink:href="#DejaVuSans-43f"/>
     <use x="901.904297" xlink:href="#DejaVuSans-440"/>
     <use x="965.380859" xlink:href="#DejaVuSans-44f"/>
     <use x="1025.537109" xlink:href="#DejaVuSans-436"/>
     <use x="1115.625" xlink:href="#DejaVuSans-435"/>
     <use x="1177.148438" xlink:href="#DejaVuSans-43d"/>
     <use x="1242.529297" xlink:href="#DejaVuSans-438"/>
     <use x="1307.519531" xlink:href="#DejaVuSans-44f"/>
     <use x="1367.675781" xlink:href="#DejaVuSans-20"/>
     <use x="1399.462891" xlink:href="#DejaVuSans-43d"/>
     <use x="1464.84375" xlink:href="#DejaVuSans-430"/>
     <use x="1526.123047" xlink:href="#DejaVuSans-20"/>
     <use x="1557.910156" xlink:href="#DejaVuSans-43a"/>
     <use x="1618.310547" xlink:href="#DejaVuSans-43e"/>
     <use x="1679.492188" xlink:href="#DejaVuSans-43d"/>
     <use x="1744.873047" xlink:href="#DejaVuSans-434"/>
     <use x="1814.013672" xlink:href="#DejaVuSans-435"/>
     <use x="1875.537109" xlink:href="#DejaVuSans-43d"/>
     <use x="1940.917969" xlink:href="#DejaVuSans-441"/>
     <use x="1995.898438" xlink:href="#DejaVuSans-430"/>
     <use x="2057.177734" xlink:href="#DejaVuSans-442"/>
     <use x="2115.429688" xlink:href="#DejaVuSans-43e"/>
     <use x="2176.611328" xlink:href="#DejaVuSans-440"/>
     <use x="2240.087891" xlink:href="#DejaVuSans-435"/>
     <use x="2301.611328" xlink:href="#DejaVuSans-20"/>
     <use x="2333.398438" xlink:href="#DejaVuSans-43e"/>
     <use x="2394.580078" xlink:href="#DejaVuSans-442"/>
     <use x="2452.832031" xlink:href="#DejaVuSans-20"/>
     <use x="2484.619141" xlink:href="#DejaVuSans-432"/>
     <use x="2543.554688" xlink:href="#DejaVuSans-440"/>
     <use x="2607.03125" xlink:href="#DejaVuSans-435"/>
     <use x="2668.554688" xlink:href="#DejaVuSans-43c"/>
     <use x="2743.994141" xlink:href="#DejaVuSans-435"/>
     <use x="2805.517578" xlink:href="#DejaVuSans-43d"/>
     <use x="2870.898438" xlink:href="#DejaVuSans-438"/>
     <use x="2935.888672" xlink:href="#DejaVuSans-20"/>
     <use x="2967.675781" xlink:href="#DejaVuSans-43f"/>
     <use x="3033.056641" xlink:href="#DejaVuSans-43e"/>
     <use x="3094.238281" xlink:href="#DejaVuSans-20"/>
     <use x="3126.025391" xlink:href="#DejaVuSans-43c"/>
     <use x="3201.464844" xlink:href="#DejaVuSans-435"/>
     <use x="3262.988281" xlink:href="#DejaVuSans-440"/>
     <use x="3326.464844" xlink:href="#DejaVuSans-435"/>
     <use x="3387.988281" xlink:href="#DejaVuSans-20"/>
     <use x="3419.775391" xlink:href="#DejaVuSans-435"/>
     <use x="3481.298828" xlink:href="#DejaVuSans-433"/>
     <use x="3533.837891" xlink:href="#DejaVuSans-43e"/>
     <use x="3595.019531" xlink:href="#DejaVuSans-20"/>
     <use x="3626.806641" xlink:href="#DejaVuSans-437"/>
     <use x="3679.980469" xlink:href="#DejaVuSans-430"/>
     <use x="3741.259766" xlink:href="#DejaVuSans-440"/>
     <use x="3804.736328" xlink:href="#DejaVuSans-44f"/>
     <use x="3864.892578" xlink:href="#DejaVuSans-434"/>
     <use x="3934.033203" xlink:href="#DejaVuSans-43a"/>
     <use x="3994.433594" xlink:href="#DejaVuSans-438"/>
     <use x="4059.423828" xlink:href="#DejaVuSans-20"/>
     <use x="4091.210938" xlink:href="#DejaVuSans-438"/>
     <use x="4156.201172" xlink:href="#DejaVuSans-20"/>
     <use x="4187.988281" xlink:href="#DejaVuSans-440"/>
     <use x="4251.464844" xlink:href="#DejaVuSans-430"/>
     <use x="4312.744141" xlink:href="#DejaVuSans-437"/>
     <use x="4365.917969" xlink:href="#DejaVuSans-440"/>
     <use x="4429.394531" xlink:href="#DejaVuSans-44f"/>
     <use x="4489.550781" xlink:href="#DejaVuSans-434"/>
     <use x="4558.691406" xlink:href="#DejaVuSans-43a"/>
     <use x="4619.091797" xlink:href="#DejaVuSans-438"/>
    </g>
   </g>
   <g id="legend_1">
    <g id="patch_9">
     <path d="M 914.435938 109.078125 
L 965 109.078125 
Q 967 109.078125 967 107.078125 
L 967 93.4 
Q 967 91.4 965 91.4 
L 914.435938 91.4 
Q 912.435938 91.4 912.435938 93.4 
L 912.435938 107.078125 
Q 912.435938 109.078125 914.435938 109.078125 
z
" style="fill:#ffffff;opacity:0.8;stroke:#cccccc;stroke-linejoin:miter;"/>
    </g>
    <g id="line2d_120">
     <path d="M 916.435938 99.498438 
L 936.435938 99.498438 
" style="fill:none;stroke:#0000ff;stroke-linecap:square;stroke-width:1.5;"/>
    </g>
    <g id="line2d_121">
     <g>
      <use style="fill:#ff0000;stroke:#0000ff;" x="926.435938" xlink:href="#mae1296c743" y="99.498438"/>
     </g>
    </g>
    <g id="text_20">
     <!-- V(t) -->
     <g transform="translate(944.435938 102.998438)scale(0.1 -0.1)">
      <defs>
       <path d="M 1831 0 
L 50 4666 
L 709 4666 
L 2188 738 
L 3669 4666 
L 4325 4666 
L 2547 0 
L 1831 0 
z
" id="DejaVuSans-56" transform="scale(0.015625)"/>
       <path d="M 1984 4856 
Q 1566 4138 1362 3434 
Q 1159 2731 1159 2009 
Q 1159 1288 1364 580 
Q 1569 -128 1984 -844 
L 1484 -844 
Q 1016 -109 783 600 
Q 550 1309 550 2009 
Q 550 2706 781 3412 
Q 1013 4119 1484 4856 
L 1984 4856 
z
" id="DejaVuSans-28" transform="scale(0.015625)"/>
       <path d="M 1172 4494 
L 1172 3500 
L 2356 3500 
L 2356 3053 
L 1172 3053 
L 1172 1153 
Q 1172 725 1289 603 
Q 1406 481 1766 481 
L 2356 481 
L 2356 0 
L 1766 0 
Q 1100 0 847 248 
Q 594 497 594 1153 
L 594 3053 
L 172 3053 
L 172 3500 
L 594 3500 
L 594 4494 
L 1172 4494 
z
" id="DejaVuSans-74" transform="scale(0.015625)"/>
       <path d="M 513 4856 
L 1013 4856 
Q 1481 4119 1714 3412 
Q 1947 2706 1947 2009 
Q 1947 1309 1714 600 
Q 1481 -109 1013 -844 
L 513 -844 
Q 928 -128 1133 580 
Q 1338 1288 1338 2009 
Q 1338 2731 1133 3434 
Q 928 4138 513 4856 
z
" id="DejaVuSans-29" transform="scale(0.015625)"/>
      </defs>
      <use xlink:href="#DejaVuSans-56"/>
      <use x="68.408203" xlink:href="#DejaVuSans-28"/>
      <use x="107.421875" xlink:href="#DejaVuSans-74"/>
      <use x="146.630859" xlink:href="#DejaVuSans-29"/>
     </g>
    </g>
   </g>
  </g>
 </g>
 <defs>
  <clipPath id="p2bfc7cc1bd">
   <rect height="554.4" width="837" x="135" y="86.4"/>
  </clipPath>
 </defs>
</svg>
